<svg viewBox="0 0 1024 1024" xmlns="http://www.w3.org/2000/svg" fill="#000000"><g id="SVGRepo_bgCarrier" stroke-width="0"></g><g id="SVGRepo_tracerCarrier" stroke-linecap="round" stroke-linejoin="round"></g><g id="SVGRepo_iconCarrier"><path fill="#ffffff" d="M896 529.152V512a384 384 0 1 0-768 0v17.152A128 128 0 0 1 320 640v128a128 128 0 1 1-256 0V512a448 448 0 1 1 896 0v256a128 128 0 1 1-256 0V640a128 128 0 0 1 192-110.848zM896 640a64 64 0 0 0-128 0v128a64 64 0 0 0 128 0V640zm-768 0v128a64 64 0 0 0 128 0V640a64 64 0 1 0-128 0z"></path></g></svg>